<?xml version="1.0" encoding="utf-8"?>
<!DOCTYPE svg PUBLIC "-//W3C//DTD SVG 20010904//EN" "http://www.w3.org/TR/2001/REC-SVG-20010904/DTD/svg10.dtd">
<svg version="1.0" xmlns="http://www.w3.org/2000/svg" width="580pt" height="600pt" viewBox="0 0 580 600" style="" preserveAspectRatio="xMidYMid meet">
<g fill="#118DB1FD" stroke="#118DB1FD">
<path d="M 255.062 101.860 C 255.853 102.127 253.151 102.416 249.057 102.502 C 244.820 102.591 241.461 103.117 241.259 103.723 C 241.064 104.309 240.026 104.558 238.952 104.277 C 237.878 103.996 237.000 104.219 237.000 104.772 C 237.000 105.325 236.438 105.757 235.750 105.731 C 232.198 105.599 229.943 106.099 230.442 106.907 C 230.751 107.405 230.032 107.560 228.845 107.249 C 227.462 106.888 226.924 107.067 227.345 107.749 C 227.766 108.431 227.228 108.611 225.845 108.249 C 224.462 107.888 223.924 108.067 224.345 108.749 C 224.766 109.431 224.228 109.611 222.845 109.249 C 221.377 108.865 220.914 109.051 221.396 109.831 C 221.855 110.574 221.558 110.768 220.552 110.382 C 219.696 110.053 219.000 110.309 219.000 110.952 C 219.000 111.593 218.550 111.840 218.000 111.500 C 217.450 111.160 217.000 111.385 217.000 112.000 C 217.000 112.615 216.550 112.840 216.000 112.500 C 215.450 112.160 215.000 112.385 215.000 113.000 C 215.000 113.615 214.565 113.849 214.034 113.521 C 212.769 112.739 205.673 116.387 202.891 119.251 C 201.689 120.488 201.092 120.825 201.564 120.000 C 202.738 117.949 197.163 121.483 194.663 124.375 C 193.653 125.544 193.172 125.848 193.595 125.052 C 194.017 124.256 191.694 125.709 188.431 128.281 C 180.761 134.329 176.101 138.425 178.000 137.448 C 178.825 137.024 178.375 137.867 177.000 139.320 C 175.625 140.774 174.725 141.290 175.000 140.468 C 175.275 139.645 173.025 141.885 170.000 145.445 C 166.975 149.006 164.500 152.424 164.500 153.043 C 164.500 153.661 164.223 153.890 163.885 153.552 C 163.547 153.214 162.488 154.132 161.532 155.592 C 160.401 157.318 160.266 157.960 161.146 157.426 C 161.891 156.975 161.017 158.099 159.205 159.925 C 157.393 161.750 156.118 163.451 156.372 163.705 C 156.626 163.959 155.936 165.064 154.839 166.161 C 153.743 167.257 153.100 168.818 153.411 169.629 C 153.775 170.576 153.562 170.848 152.819 170.388 C 152.038 169.905 151.875 170.231 152.319 171.388 C 152.710 172.407 152.576 172.856 151.989 172.493 C 151.099 171.943 150.568 173.265 150.882 175.250 C 150.947 175.663 150.523 176.000 149.941 176.000 C 149.359 176.000 149.160 176.450 149.500 177.000 C 149.840 177.550 149.593 178.000 148.952 178.000 C 148.309 178.000 148.053 178.696 148.382 179.552 C 148.709 180.406 148.565 180.849 148.061 180.537 C 146.872 179.803 145.651 183.627 146.590 185.146 C 147.070 185.923 146.869 186.037 145.985 185.490 C 145.023 184.896 144.835 185.128 145.299 186.336 C 145.650 187.252 145.454 188.000 144.862 188.000 C 144.270 188.000 144.045 188.675 144.362 189.500 C 144.678 190.325 144.453 191.000 143.862 191.000 C 143.270 191.000 143.045 191.675 143.362 192.500 C 143.678 193.325 143.453 194.000 142.862 194.000 C 142.270 194.000 142.034 194.646 142.337 195.435 C 142.640 196.225 142.377 197.041 141.753 197.249 C 141.129 197.457 140.570 199.528 140.512 201.850 C 140.454 204.173 140.037 205.719 139.586 205.286 C 139.135 204.854 139.092 206.019 139.490 207.875 C 140.038 210.428 139.914 211.065 138.982 210.489 C 138.066 209.923 137.858 210.662 138.174 213.364 C 138.407 215.364 138.188 217.000 137.686 217.000 C 137.184 217.000 136.971 218.350 137.213 220.000 C 137.626 222.811 137.448 223.000 134.386 223.000 C 132.589 223.000 130.839 223.452 130.498 224.004 C 130.157 224.556 128.780 224.732 127.439 224.395 C 126.054 224.048 125.000 224.222 125.000 224.798 C 125.000 225.356 124.030 225.559 122.844 225.249 C 121.274 224.838 120.900 225.029 121.469 225.950 C 122.045 226.881 121.691 227.037 120.125 226.540 C 118.892 226.148 118.000 226.300 118.000 226.901 C 118.000 227.471 117.251 227.650 116.336 227.299 C 115.120 226.832 114.895 227.021 115.500 228.000 C 116.105 228.979 115.880 229.168 114.664 228.701 C 113.749 228.350 113.000 228.525 113.000 229.090 C 113.000 229.656 112.562 229.847 112.027 229.516 C 111.491 229.186 110.254 229.849 109.277 230.990 C 108.216 232.228 107.484 232.548 107.460 231.782 C 107.438 231.077 105.951 232.036 104.155 233.914 C 102.359 235.792 101.028 236.808 101.195 236.171 C 101.363 235.535 99.494 237.036 97.042 239.507 C 94.590 241.978 92.902 244.056 93.292 244.125 C 93.681 244.194 93.550 244.306 93.000 244.375 C 92.450 244.444 91.940 244.950 91.866 245.500 C 91.792 246.050 90.861 247.109 89.798 247.854 C 88.735 248.598 88.116 249.859 88.421 250.656 C 88.731 251.464 88.540 251.834 87.989 251.493 C 87.099 250.943 86.568 252.265 86.882 254.250 C 86.947 254.663 86.523 255.000 85.941 255.000 C 85.359 255.000 85.160 255.450 85.500 256.000 C 85.840 256.550 85.615 257.000 85.000 257.000 C 84.385 257.000 84.160 257.450 84.500 258.000 C 84.840 258.550 84.676 259.000 84.137 259.000 C 82.701 259.000 80.829 265.390 81.643 267.511 C 82.157 268.852 81.997 269.116 81.032 268.519 C 80.000 267.882 79.872 268.504 80.425 271.454 C 80.903 274.001 80.788 274.987 80.064 274.539 C 79.346 274.096 79.005 276.424 79.015 281.691 C 79.027 287.410 79.310 289.099 80.074 288.000 C 80.831 286.912 80.934 287.702 80.450 290.877 C 79.964 294.056 80.096 295.059 80.931 294.543 C 81.746 294.039 81.880 294.628 81.394 296.565 C 80.879 298.619 81.020 299.106 81.961 298.524 C 82.889 297.950 83.029 298.333 82.500 300.000 C 81.965 301.686 82.106 302.053 83.063 301.461 C 83.971 300.900 84.155 301.153 83.701 302.336 C 83.350 303.251 83.525 304.000 84.090 304.000 C 84.656 304.000 84.840 304.450 84.500 305.000 C 84.160 305.550 84.385 306.000 85.000 306.000 C 85.615 306.000 85.856 306.423 85.537 306.940 C 85.217 307.458 85.978 308.874 87.228 310.087 C 88.478 311.301 88.873 311.936 88.106 311.499 C 87.157 310.958 87.313 311.722 88.597 313.894 C 90.239 316.674 90.289 317.206 88.991 318.027 C 88.171 318.545 87.950 319.011 88.500 319.061 C 89.050 319.112 88.611 319.319 87.525 319.521 C 86.438 319.724 83.738 321.851 81.525 324.249 C 79.311 326.647 78.175 327.651 79.000 326.481 C 79.825 325.311 78.338 326.636 75.697 329.427 C 73.055 332.217 71.480 334.539 72.197 334.586 C 72.940 334.636 72.737 335.008 71.723 335.454 C 69.474 336.442 64.633 344.598 65.482 345.970 C 65.832 346.537 65.615 347.000 65.000 347.000 C 64.385 347.000 64.160 347.450 64.500 348.000 C 64.840 348.550 64.611 349.000 63.992 349.000 C 63.298 349.000 63.124 349.817 63.540 351.125 C 63.957 352.439 63.833 353.015 63.214 352.632 C 61.895 351.817 60.737 356.578 61.584 359.335 C 61.960 360.560 61.869 361.138 61.374 360.666 C 60.878 360.193 60.433 364.626 60.345 370.916 C 60.251 377.661 60.560 381.772 61.135 381.416 C 61.700 381.067 61.804 381.932 61.394 383.565 C 60.897 385.546 61.035 386.097 61.894 385.565 C 62.754 385.034 62.891 385.585 62.394 387.565 C 61.940 389.373 62.065 390.078 62.761 389.648 C 63.417 389.242 63.617 389.750 63.290 390.999 C 62.986 392.162 63.259 393.000 63.942 393.000 C 64.589 393.000 64.840 393.450 64.500 394.000 C 64.160 394.550 64.385 395.000 65.000 395.000 C 65.615 395.000 65.840 395.450 65.500 396.000 C 65.160 396.550 65.385 397.000 66.000 397.000 C 66.615 397.000 66.840 397.450 66.500 398.000 C 66.160 398.550 66.359 399.000 66.941 399.000 C 67.523 399.000 67.947 399.338 67.882 399.750 C 67.568 401.735 68.099 403.057 68.989 402.507 C 69.545 402.163 69.729 402.542 69.410 403.374 C 69.059 404.288 69.905 405.547 71.628 406.676 C 73.159 407.679 73.872 408.500 73.211 408.500 C 72.550 408.500 74.783 411.200 78.172 414.500 C 81.562 417.800 83.922 419.708 83.417 418.741 C 82.913 417.773 83.625 418.398 85.000 420.130 C 86.375 421.862 87.353 422.664 87.174 421.912 C 86.995 421.159 88.024 421.813 89.462 423.364 C 91.030 425.057 92.681 425.953 93.590 425.604 C 94.423 425.284 94.858 425.421 94.558 425.907 C 93.899 426.973 96.806 428.238 98.090 427.444 C 98.591 427.135 99.000 427.407 99.000 428.048 C 99.000 428.691 99.696 428.947 100.552 428.618 C 101.406 428.291 101.863 428.413 101.568 428.890 C 100.871 430.018 106.480 431.137 108.653 430.303 C 109.870 429.836 110.105 430.021 109.511 430.982 C 108.861 432.034 109.596 432.180 113.097 431.696 C 116.062 431.287 116.847 431.380 115.500 431.981 C 114.319 432.509 183.883 432.798 285.417 432.687 C 413.406 432.548 457.431 432.208 457.715 431.356 C 457.924 430.727 459.045 430.460 460.204 430.764 C 461.628 431.136 462.083 430.944 461.607 430.173 C 461.109 429.367 461.799 429.210 463.950 429.640 C 465.986 430.047 467.000 429.853 467.000 429.058 C 467.000 428.320 467.763 428.107 469.000 428.500 C 470.162 428.869 471.000 428.680 471.000 428.048 C 471.000 427.372 472.001 427.213 473.649 427.627 C 475.392 428.064 476.076 427.932 475.648 427.239 C 475.235 426.571 475.786 426.393 477.155 426.751 C 478.726 427.162 479.100 426.971 478.531 426.050 C 477.949 425.108 478.324 424.968 480.000 425.500 C 481.427 425.953 482.021 425.843 481.624 425.200 C 481.240 424.579 481.831 424.405 483.155 424.751 C 484.774 425.174 485.108 424.983 484.492 423.988 C 483.905 423.037 484.120 422.832 485.249 423.265 C 487.370 424.079 500.491 417.702 501.514 415.361 C 502.113 413.991 502.359 413.896 502.449 415.000 C 502.527 415.958 503.087 415.597 504.000 414.000 C 504.816 412.572 505.444 412.129 505.465 412.967 C 505.486 413.868 506.953 412.981 509.267 410.667 C 511.338 408.595 512.913 407.360 512.767 407.922 C 512.620 408.484 515.527 406.144 519.226 402.722 C 522.925 399.300 524.846 397.175 523.495 398.000 C 522.144 398.825 523.030 397.778 525.465 395.674 C 531.039 390.856 539.512 378.638 538.460 376.936 C 537.964 376.132 538.100 375.944 538.845 376.405 C 539.876 377.042 540.449 375.847 540.118 373.750 C 540.053 373.338 540.477 373.000 541.059 373.000 C 541.641 373.000 541.840 372.550 541.500 372.000 C 541.160 371.450 541.344 371.000 541.910 371.000 C 542.475 371.000 542.650 370.251 542.299 369.336 C 541.869 368.217 542.043 367.909 542.830 368.395 C 543.938 369.080 544.164 368.698 544.400 365.750 C 544.455 365.063 544.881 364.221 545.348 363.881 C 545.814 363.540 546.264 362.078 546.348 360.631 C 546.431 359.185 546.864 358.001 547.309 358.001 C 547.754 358.000 547.859 357.581 547.543 357.069 C 547.226 356.557 547.443 355.844 548.024 355.485 C 548.606 355.126 548.790 353.913 548.434 352.791 C 547.972 351.338 548.136 350.966 549.000 351.500 C 549.905 352.059 550.044 351.391 549.546 348.875 C 549.022 346.226 549.125 345.823 550.022 347.000 C 550.922 348.180 551.054 347.696 550.642 344.728 C 550.354 342.653 550.453 341.162 550.861 341.414 C 551.270 341.667 551.569 334.676 551.526 325.879 C 551.484 317.082 551.142 310.191 550.767 310.566 C 550.392 310.941 550.362 309.547 550.699 307.468 C 551.152 304.674 551.001 303.882 550.116 304.428 C 549.244 304.967 549.106 304.427 549.606 302.435 C 550.103 300.454 549.965 299.903 549.106 300.435 C 548.254 300.961 548.103 300.440 548.568 298.584 C 548.965 297.003 548.799 296.000 548.140 296.000 C 547.546 296.000 547.349 295.253 547.701 294.336 C 548.155 293.153 547.971 292.900 547.063 293.461 C 546.126 294.040 545.957 293.712 546.427 292.231 C 546.798 291.061 546.494 289.636 545.704 288.846 C 544.953 288.096 544.546 286.861 544.799 286.102 C 545.076 285.273 544.813 284.998 544.141 285.413 C 543.429 285.853 543.239 285.540 543.618 284.552 C 543.947 283.696 543.691 283.000 543.048 283.000 C 542.407 283.000 542.160 282.550 542.500 282.000 C 542.840 281.450 542.615 281.000 542.000 281.000 C 541.385 281.000 541.160 280.550 541.500 280.000 C 541.840 279.450 541.615 279.000 541.000 279.000 C 540.385 279.000 540.160 278.550 540.500 278.000 C 540.840 277.450 540.641 277.000 540.059 277.000 C 539.477 277.000 539.053 276.663 539.118 276.250 C 539.432 274.265 538.901 272.943 538.011 273.493 C 537.446 273.843 537.276 273.444 537.615 272.560 C 537.964 271.652 537.550 270.764 536.609 270.404 C 535.731 270.066 535.247 269.410 535.534 268.945 C 535.821 268.481 535.031 267.531 533.778 266.836 C 532.336 266.035 532.051 265.558 533.000 265.535 C 533.914 265.514 532.779 263.779 530.095 261.095 C 527.673 258.673 526.323 257.058 527.095 257.507 C 527.868 257.955 527.375 257.133 526.000 255.680 C 524.625 254.226 523.725 253.713 524.000 254.539 C 524.439 255.857 524.331 255.855 523.128 254.521 C 522.373 253.684 522.090 253.000 522.500 253.000 C 523.800 253.000 520.704 249.825 514.000 244.282 C 510.425 241.327 507.484 239.492 507.465 240.204 C 507.445 240.917 506.846 240.449 506.134 239.164 C 505.421 237.880 504.612 237.055 504.336 237.331 C 504.059 237.607 502.858 236.858 501.667 235.667 C 500.005 234.005 499.480 233.849 499.414 235.000 C 499.347 236.157 499.151 236.101 498.559 234.756 C 498.136 233.796 497.388 233.260 496.895 233.565 C 496.403 233.869 496.000 233.566 496.000 232.892 C 496.000 232.218 495.721 231.945 495.381 232.286 C 495.040 232.626 494.104 232.247 493.300 231.443 C 492.496 230.639 491.425 230.237 490.919 230.550 C 490.414 230.862 490.000 230.656 490.000 230.090 C 490.000 229.525 489.251 229.350 488.336 229.701 C 487.267 230.111 486.915 229.947 487.350 229.242 C 488.169 227.917 484.504 226.570 482.854 227.590 C 482.095 228.059 481.962 227.871 482.471 227.047 C 483.051 226.109 482.674 225.969 481.000 226.500 C 479.365 227.019 478.955 226.882 479.500 226.000 C 480.045 225.118 479.635 224.981 478.000 225.500 C 476.609 225.941 475.982 225.838 476.359 225.229 C 477.111 224.012 471.641 222.817 469.347 223.697 C 468.159 224.153 467.900 223.971 468.455 223.072 C 469.051 222.109 468.372 221.921 465.629 222.291 C 463.265 222.610 462.243 222.417 462.666 221.731 C 463.074 221.071 462.517 220.893 461.155 221.249 C 459.968 221.560 459.249 221.405 459.558 220.907 C 459.866 220.408 459.656 220.000 459.090 220.000 C 458.525 220.000 458.322 219.325 458.638 218.500 C 458.955 217.675 458.689 217.000 458.048 217.000 C 457.407 217.000 457.160 216.550 457.500 216.000 C 457.840 215.450 457.615 215.000 457.000 215.000 C 456.385 215.000 456.160 214.550 456.500 214.000 C 456.840 213.450 456.656 213.000 456.090 213.000 C 455.525 213.000 455.320 212.329 455.635 211.508 C 455.961 210.658 455.521 209.753 454.609 209.404 C 453.731 209.066 453.233 208.431 453.505 207.993 C 454.089 207.047 446.217 196.348 442.849 193.510 C 440.593 191.609 440.599 191.649 443.000 194.523 C 444.375 196.168 442.943 194.924 439.817 191.757 C 434.716 186.589 433.005 185.450 431.543 186.250 C 431.292 186.388 430.460 185.644 429.695 184.597 C 428.815 183.394 427.824 182.991 426.997 183.502 C 426.180 184.007 425.934 183.916 426.340 183.259 C 427.074 182.071 424.303 180.695 422.910 181.556 C 422.409 181.865 422.000 181.593 422.000 180.952 C 422.000 180.311 421.325 180.045 420.500 180.362 C 419.675 180.678 419.000 180.543 419.000 180.062 C 419.000 179.581 418.030 179.441 416.844 179.751 C 415.226 180.174 414.892 179.983 415.508 178.988 C 416.101 178.028 415.876 177.834 414.696 178.286 C 413.798 178.631 412.785 178.461 412.444 177.910 C 412.104 177.359 410.512 177.114 408.907 177.367 C 407.285 177.623 406.240 177.421 406.553 176.914 C 406.876 176.391 403.702 176.000 399.142 176.000 C 393.673 176.000 391.023 176.393 390.708 177.250 C 390.354 178.217 389.939 178.184 388.875 177.103 C 388.036 176.251 387.983 175.979 388.739 176.405 C 389.569 176.873 389.781 176.594 389.384 175.558 C 389.057 174.707 388.318 174.303 387.741 174.660 C 387.138 175.033 386.987 174.830 387.386 174.184 C 388.302 172.702 385.558 167.476 383.287 166.378 C 382.304 165.902 382.082 165.629 382.793 165.771 C 383.841 165.980 383.847 165.599 382.828 163.764 C 382.137 162.519 381.555 162.100 381.535 162.833 C 381.516 163.567 381.194 163.860 380.819 163.486 C 380.444 163.111 380.367 162.208 380.646 161.479 C 380.926 160.750 380.130 159.556 378.878 158.827 C 377.626 158.097 377.176 157.624 377.879 157.776 C 378.582 157.928 377.136 155.453 374.666 152.276 C 369.969 146.234 357.284 133.318 356.471 133.750 C 356.212 133.888 355.775 133.944 355.500 133.875 C 355.225 133.806 355.497 133.694 356.105 133.625 C 357.651 133.450 353.576 129.925 351.338 129.501 C 349.043 129.066 348.664 128.786 350.155 128.625 C 350.790 128.556 348.877 126.814 345.905 124.753 C 342.932 122.693 340.624 121.568 340.775 122.253 C 340.926 122.939 340.251 122.515 339.275 121.311 C 338.299 120.107 336.863 118.982 336.083 118.811 C 335.304 118.640 333.807 117.678 332.756 116.673 C 331.705 115.668 330.182 115.100 329.371 115.411 C 328.542 115.729 328.164 115.544 328.507 114.989 C 329.087 114.051 328.653 113.832 325.750 113.600 C 325.063 113.545 323.901 112.933 323.169 112.241 C 322.438 111.548 321.425 111.237 320.919 111.550 C 320.414 111.862 320.000 111.604 320.000 110.976 C 320.000 110.347 319.442 110.019 318.759 110.247 C 318.076 110.475 316.884 110.027 316.110 109.253 C 315.335 108.478 313.868 108.063 312.850 108.329 C 311.706 108.628 311.249 108.406 311.655 107.749 C 312.076 107.067 311.538 106.888 310.156 107.249 C 308.970 107.559 308.000 107.357 308.000 106.799 C 308.000 106.242 307.325 106.045 306.500 106.362 C 305.675 106.678 305.000 106.471 305.000 105.901 C 305.000 105.320 304.121 105.144 303.000 105.500 C 301.838 105.869 301.000 105.680 301.000 105.048 C 301.000 104.372 299.999 104.213 298.351 104.627 C 296.323 105.136 295.890 104.987 296.506 103.990 C 297.130 102.980 296.591 102.832 294.106 103.329 C 291.880 103.774 291.110 103.631 291.587 102.860 C 292.058 102.098 291.132 101.883 288.636 102.174 C 286.636 102.407 285.000 102.317 285.000 101.973 C 285.000 101.629 277.941 101.353 269.312 101.361 C 260.684 101.369 254.272 101.593 255.062 101.860 M 282.324 298.401 C 281.851 298.907 283.206 299.022 285.500 298.670 C 288.458 298.216 289.109 298.332 288.000 299.113 C 286.877 299.903 287.379 300.022 290.000 299.586 C 292.217 299.216 292.993 299.329 292.117 299.893 C 291.098 300.548 291.624 301.000 294.117 301.610 C 295.978 302.066 297.950 302.452 298.500 302.469 C 299.050 302.486 299.995 303.133 300.601 303.906 C 301.206 304.679 302.781 305.429 304.101 305.573 C 306.889 305.876 307.525 306.191 305.750 306.390 C 304.790 306.498 304.806 306.724 305.817 307.365 C 306.541 307.825 307.441 307.893 307.817 307.517 C 308.192 307.141 308.500 307.321 308.500 307.917 C 308.500 308.513 308.752 308.888 309.061 308.750 C 309.370 308.613 311.170 310.181 313.061 312.235 C 314.952 314.290 316.050 315.099 315.500 314.033 C 314.542 312.175 314.573 312.169 316.252 313.878 C 317.216 314.860 317.739 315.927 317.415 316.251 C 317.091 316.575 318.083 317.664 319.619 318.670 C 321.155 319.677 321.906 320.500 321.287 320.500 C 320.554 320.500 320.656 321.177 321.581 322.441 C 322.361 323.509 323.052 324.184 323.115 323.941 C 323.179 323.699 323.335 323.950 323.463 324.500 C 323.591 325.050 323.764 325.388 323.848 325.250 C 323.931 325.113 324.018 325.217 324.041 325.482 C 324.121 326.429 327.959 334.490 328.096 334.000 C 328.174 333.725 328.168 333.884 328.084 334.354 C 327.773 336.090 329.174 339.010 330.057 338.465 C 330.583 338.140 330.703 339.300 330.341 341.200 C 329.996 343.015 330.044 344.195 330.450 343.823 C 330.855 343.451 331.216 348.390 331.252 354.798 C 331.288 361.207 331.018 365.786 330.654 364.975 C 330.287 364.158 330.137 364.639 330.319 366.053 C 330.500 367.457 330.010 369.201 329.231 369.929 C 328.452 370.656 328.017 372.306 328.263 373.596 C 328.538 375.034 328.315 375.695 327.686 375.306 C 327.073 374.927 326.905 375.309 327.267 376.253 C 327.626 377.190 327.246 378.075 326.333 378.426 C 325.440 378.769 325.041 379.665 325.385 380.560 C 325.771 381.567 325.574 381.855 324.819 381.388 C 324.038 380.905 323.875 381.231 324.319 382.388 C 324.691 383.357 324.569 383.852 324.039 383.524 C 323.523 383.205 322.612 383.857 322.015 384.972 C 321.418 386.087 321.231 387.000 321.600 387.000 C 321.968 387.000 321.056 388.013 319.573 389.250 C 318.089 390.488 317.588 391.275 318.459 391.000 C 319.871 390.554 319.878 390.648 318.521 391.872 C 317.684 392.627 317.000 392.910 317.000 392.500 C 317.000 392.090 316.292 392.373 315.426 393.128 C 314.371 394.047 314.288 394.392 315.176 394.173 C 315.904 393.993 315.211 395.196 313.635 396.847 C 312.060 398.498 310.181 399.623 309.460 399.346 C 308.739 399.069 307.328 400.045 306.324 401.514 C 305.321 402.982 304.607 403.709 304.738 403.128 C 304.869 402.547 304.309 402.328 303.494 402.641 C 302.679 402.954 302.257 403.607 302.558 404.093 C 302.858 404.579 302.332 404.681 301.388 404.319 C 300.132 403.836 299.891 404.015 300.490 404.985 C 301.003 405.814 300.920 406.069 300.269 405.666 C 299.039 404.906 292.624 406.957 293.498 407.832 C 293.829 408.162 292.429 408.539 290.387 408.670 C 288.346 408.800 286.411 409.266 286.088 409.704 C 285.287 410.788 264.998 410.721 264.999 409.633 C 265.000 409.157 264.100 409.002 263.000 409.290 C 261.900 409.577 261.000 409.352 261.000 408.790 C 261.000 408.227 260.099 408.002 258.999 408.290 C 257.793 408.605 257.246 408.410 257.624 407.800 C 258.021 407.157 257.427 407.047 256.000 407.500 C 254.642 407.931 253.985 407.833 254.343 407.253 C 254.945 406.281 250.126 403.541 249.287 404.379 C 249.038 404.629 247.954 403.954 246.880 402.880 C 245.806 401.806 244.424 401.238 243.809 401.618 C 243.129 402.038 242.971 401.856 243.405 401.155 C 243.797 400.520 243.641 399.944 243.059 399.875 C 242.477 399.806 241.438 399.694 240.750 399.625 C 240.063 399.556 239.477 399.050 239.449 398.500 C 239.392 397.360 232.066 389.554 231.875 390.429 C 231.806 390.743 231.673 390.438 231.580 389.750 C 231.486 389.063 230.883 388.607 230.241 388.738 C 229.598 388.869 229.311 388.353 229.603 387.592 C 229.895 386.830 229.265 385.598 228.202 384.854 C 227.139 384.109 226.290 383.275 226.316 383.000 C 226.491 381.167 224.962 377.905 224.161 378.401 C 223.609 378.742 223.397 378.200 223.671 377.150 C 223.937 376.132 223.522 374.665 222.747 373.890 C 221.973 373.116 221.546 371.861 221.799 371.102 C 222.098 370.207 221.825 369.990 221.023 370.486 C 220.124 371.041 219.970 370.669 220.460 369.125 C 220.832 367.953 220.699 367.000 220.163 367.000 C 219.606 367.000 219.419 365.292 219.727 363.000 C 220.022 360.800 219.867 359.000 219.382 359.000 C 218.897 358.999 218.508 356.187 218.517 352.750 C 218.527 349.132 218.828 347.342 219.230 348.500 C 219.613 349.600 219.774 348.371 219.588 345.768 C 219.368 342.693 219.611 341.260 220.282 341.675 C 220.927 342.073 221.103 341.502 220.751 340.156 C 220.441 338.970 220.643 338.000 221.201 338.000 C 221.758 338.000 221.946 337.302 221.618 336.448 C 221.245 335.475 221.432 335.149 222.119 335.573 C 222.859 336.031 222.983 335.521 222.500 334.000 C 222.052 332.587 222.159 331.980 222.788 332.369 C 224.013 333.126 225.262 330.233 224.349 328.755 C 223.931 328.079 224.174 327.990 225.015 328.510 C 225.985 329.109 226.164 328.868 225.681 327.612 C 225.290 326.593 225.424 326.144 226.011 326.507 C 226.894 327.053 227.395 325.721 226.750 324.543 C 226.613 324.292 227.400 323.406 228.500 322.575 C 229.600 321.744 230.163 320.993 229.750 320.907 C 229.338 320.821 229.563 320.683 230.250 320.601 C 230.938 320.519 231.443 319.709 231.374 318.802 C 231.304 317.895 232.879 315.656 234.874 313.826 L 238.500 310.500 235.500 314.045 C 233.850 315.994 234.750 315.334 237.500 312.578 C 240.250 309.821 242.950 307.526 243.500 307.476 C 245.610 307.286 247.964 305.751 247.442 304.907 C 247.142 304.421 247.591 304.289 248.440 304.615 C 249.348 304.964 250.236 304.550 250.596 303.609 C 250.934 302.731 251.561 302.229 251.990 302.494 C 253.209 303.247 259.064 300.912 258.449 299.918 C 258.144 299.423 259.320 299.314 261.106 299.671 C 263.161 300.082 264.087 299.949 263.686 299.301 C 263.303 298.681 264.019 298.472 265.530 298.761 C 266.889 299.021 268.000 298.843 268.000 298.367 C 268.000 297.890 271.408 297.504 275.574 297.510 C 279.903 297.515 282.795 297.897 282.324 298.401 M 458.000 272.500 L 458.000 284.000 436.250 284.118 C 424.288 284.184 414.163 284.184 413.750 284.118 C 413.338 284.053 413.000 312.350 413.000 347.000 L 413.000 410.000 390.508 410.000 L 368.015 410.000 367.758 347.250 L 367.500 284.500 344.500 284.304 L 321.500 284.108 321.782 272.554 L 322.063 261.000 390.032 261.000 L 458.000 261.000 458.000 272.500 M 190.418 329.607 C 191.520 330.030 192.000 331.514 192.000 334.500 C 192.000 339.320 191.124 340.000 184.918 340.000 L 181.000 340.000 181.000 370.421 L 181.000 400.841 183.750 401.350 C 185.263 401.629 188.688 401.850 191.361 401.840 C 197.302 401.819 198.226 402.645 197.818 407.618 L 197.500 411.500 165.500 411.780 C 147.900 411.933 132.488 411.812 131.250 411.510 C 129.333 411.043 129.000 410.299 129.000 406.481 C 129.000 403.598 129.446 401.977 130.250 401.935 C 130.938 401.899 134.538 401.865 138.250 401.858 L 145.000 401.846 145.000 370.978 L 145.000 340.110 140.250 339.805 C 135.521 339.501 135.499 339.483 135.183 335.645 C 134.609 328.647 133.165 329.000 162.387 329.000 C 176.934 329.000 189.548 329.273 190.418 329.607 M 172.066 292.534 C 173.637 293.347 176.120 296.055 177.584 298.553 C 181.049 304.465 180.654 311.143 176.519 316.564 C 167.962 327.782 149.580 323.508 147.352 309.782 C 145.049 295.588 159.061 285.809 172.066 292.534 "/></g>
<g fill="#C9E9F1FD" stroke="#C9E9F1FD">
<path d="M 109.255 433.112 C 107.740 433.448 102.917 434.281 98.537 434.963 C 82.865 437.402 67.223 444.666 63.028 451.454 C 58.897 458.138 61.280 466.682 68.336 470.481 C 70.351 471.567 72.000 472.768 72.000 473.150 C 72.000 473.532 73.688 474.361 75.750 474.992 C 77.813 475.623 80.586 476.670 81.914 477.320 C 83.802 478.243 84.419 478.228 84.747 477.250 C 85.228 475.816 92.000 475.520 92.000 476.933 C 92.000 477.446 90.988 478.233 89.750 478.683 C 88.161 479.260 88.087 479.376 89.500 479.079 C 90.600 478.847 101.175 478.397 113.000 478.079 L 134.500 477.500 134.851 475.000 C 135.289 471.879 136.786 470.862 140.000 471.500 C 144.681 472.429 145.251 471.106 145.776 458.102 L 146.265 446.000 138.601 446.000 C 132.497 446.000 130.812 445.674 130.323 444.399 C 129.985 443.519 130.337 442.397 131.104 441.907 C 131.872 441.416 146.900 441.124 164.500 441.257 C 195.752 441.494 196.500 441.547 196.500 443.500 C 196.500 445.303 195.736 445.529 188.750 445.792 L 181.000 446.084 181.000 458.542 C 181.000 467.790 181.322 471.025 182.250 471.097 C 182.938 471.150 185.182 471.116 187.237 471.021 C 190.455 470.873 191.147 471.242 192.217 473.674 C 192.900 475.229 193.800 476.748 194.217 477.051 C 194.633 477.354 200.492 477.711 207.237 477.843 C 213.982 477.976 220.250 478.309 221.167 478.583 C 222.481 478.977 222.714 478.597 222.265 476.791 C 221.952 475.531 220.864 473.306 219.848 471.846 C 214.786 464.575 220.491 455.434 233.927 449.287 C 243.199 445.045 250.475 443.351 264.500 442.169 C 280.984 440.779 298.035 442.431 310.310 446.605 C 324.716 451.505 332.000 457.884 332.000 465.601 C 332.000 470.104 330.679 473.865 328.629 475.196 C 328.040 475.578 327.872 476.205 328.255 476.588 C 328.638 476.971 329.712 476.658 330.642 475.893 C 332.178 474.627 332.275 474.773 331.706 477.500 C 331.361 479.150 331.324 479.938 331.623 479.250 C 332.026 478.323 336.407 478.000 348.583 478.000 C 363.492 478.000 365.014 478.161 365.157 479.750 C 365.543 484.039 366.763 466.284 366.876 454.750 L 367.000 442.000 389.893 442.000 C 407.288 442.000 412.900 442.300 413.259 443.250 C 413.519 443.938 413.816 451.162 413.919 459.305 C 414.021 467.447 414.435 475.001 414.837 476.090 C 415.555 478.030 416.634 478.069 467.989 478.018 L 520.408 477.966 522.813 475.733 C 525.389 473.341 533.216 461.815 535.159 457.551 C 536.560 454.476 535.886 453.835 526.120 448.966 C 511.902 441.878 493.545 437.231 469.000 434.508 C 457.632 433.247 428.375 432.970 283.755 432.755 C 189.295 432.615 110.770 432.775 109.255 433.112 "/></g>
<g fill="#81D4F4FD" stroke="#81D4F4FD">
<path d="M 322.000 272.481 L 322.000 283.962 344.750 284.231 L 367.500 284.500 367.758 347.250 L 368.015 410.000 390.508 410.000 L 413.000 410.000 413.000 347.000 L 413.000 284.000 435.500 284.000 L 458.000 284.000 458.000 272.500 L 458.000 261.000 390.000 261.000 L 322.000 261.000 322.000 272.481 "/></g>
<g fill="#F9E804FD" stroke="#F9E804FD">
<path d="M 137.000 334.000 C 137.000 336.868 137.189 337.000 141.300 337.000 C 143.665 337.000 146.140 337.540 146.800 338.200 C 147.680 339.080 148.000 347.448 148.000 369.618 C 148.000 386.238 147.727 400.548 147.393 401.418 C 146.916 402.660 145.222 403.000 139.507 403.000 L 132.227 403.000 131.786 406.006 C 131.543 407.659 131.567 409.234 131.839 409.506 C 132.111 409.778 146.433 410.000 163.667 410.000 L 195.000 410.000 195.000 406.542 L 195.000 403.084 187.250 402.792 L 179.500 402.500 179.236 371.120 C 179.047 348.798 179.299 339.344 180.108 338.370 C 180.733 337.616 182.990 337.000 185.122 337.000 C 188.764 337.000 189.000 336.818 189.000 334.000 L 189.000 331.000 163.000 331.000 L 137.000 331.000 137.000 334.000 "/></g>
<g fill="#FCF9D0FD" stroke="#FCF9D0FD">
<path d="M 132.000 443.486 C 132.000 444.693 133.409 445.000 138.941 445.000 C 142.759 445.000 146.164 445.456 146.508 446.013 C 146.852 446.570 147.257 451.973 147.408 458.021 C 147.559 464.068 147.979 469.313 148.341 469.675 C 148.704 470.037 149.000 469.758 149.000 469.055 C 149.000 468.157 149.964 467.956 152.250 468.381 C 154.038 468.712 160.318 469.028 166.207 469.083 L 176.914 469.182 176.301 472.246 C 175.888 474.311 176.039 475.094 176.765 474.645 C 177.789 474.013 179.108 465.183 179.476 456.500 C 179.569 454.300 179.725 450.831 179.823 448.792 L 180.000 445.084 187.750 444.792 C 192.055 444.630 195.500 444.056 195.500 443.500 C 195.500 442.860 184.074 442.405 163.750 442.236 C 135.947 442.005 132.000 442.160 132.000 443.486 "/></g>
<g fill="#F9E804FD" stroke="#F9E804FD">
<path d="M 157.405 293.904 C 149.742 297.384 146.740 306.607 151.018 313.528 C 156.134 321.808 166.728 323.205 173.446 316.487 C 180.670 309.263 177.967 297.534 168.128 293.413 C 163.772 291.588 162.362 291.653 157.405 293.904 "/></g>
<g fill="#118DB1FD" stroke="#118DB1FD">
<path d="M 236.875 318.000 C 236.806 318.550 236.694 319.488 236.625 320.083 C 236.556 320.679 236.208 320.875 235.851 320.518 C 233.863 318.529 224.438 336.482 225.496 340.242 C 226.015 342.087 225.921 342.226 224.981 341.000 C 224.069 339.810 223.949 340.181 224.401 342.800 C 224.754 344.846 224.596 345.868 223.985 345.491 C 223.400 345.129 223.000 346.531 223.000 348.941 L 223.000 353.000 233.500 353.000 C 240.223 353.000 244.000 352.619 244.000 351.941 C 244.000 351.359 243.631 351.110 243.181 351.388 C 242.730 351.667 242.573 350.457 242.831 348.699 C 243.239 345.916 243.408 345.762 244.136 347.502 C 244.680 348.803 244.889 347.291 244.736 343.168 C 244.599 339.493 244.874 337.185 245.392 337.668 C 245.909 338.151 246.039 336.919 245.701 334.728 C 245.314 332.223 245.471 331.173 246.166 331.603 C 246.850 332.025 246.966 331.468 246.500 330.000 C 246.055 328.599 246.161 327.981 246.779 328.364 C 247.326 328.701 248.007 328.082 248.293 326.987 C 248.613 325.765 248.414 325.244 247.777 325.638 C 247.196 325.997 246.942 325.673 247.200 324.900 C 247.462 324.113 245.827 322.121 243.390 320.260 C 239.002 316.910 237.094 316.248 236.875 318.000 "/></g>
<g fill="#118DB1FD" stroke="#118DB1FD">
<path d="M 310.500 318.000 C 310.160 318.550 310.246 319.034 310.691 319.077 C 311.136 319.119 310.622 319.317 309.549 319.518 C 308.476 319.718 306.777 320.921 305.774 322.191 C 304.771 323.461 304.074 323.904 304.225 323.176 C 304.420 322.237 304.112 322.296 303.167 323.378 C 301.836 324.902 302.391 329.000 303.929 329.000 C 304.365 329.000 304.495 330.192 304.216 331.649 C 303.870 333.458 304.068 334.076 304.840 333.599 C 305.630 333.110 305.787 333.817 305.360 335.950 C 304.966 337.919 305.153 339.000 305.887 339.000 C 306.653 339.000 306.815 340.303 306.385 342.995 C 305.992 345.449 306.187 347.521 306.890 348.368 C 307.520 349.126 307.747 350.495 307.396 351.410 C 306.822 352.905 307.802 353.044 317.129 352.786 L 327.500 352.500 327.663 349.245 C 327.763 347.252 327.431 346.234 326.806 346.620 C 326.141 347.031 326.034 346.121 326.500 344.000 C 327.033 341.573 326.907 340.940 326.000 341.500 C 325.128 342.039 324.976 341.651 325.460 340.125 C 325.852 338.892 325.700 338.000 325.099 338.000 C 324.529 338.000 324.350 337.251 324.701 336.336 C 325.105 335.283 324.944 334.916 324.263 335.337 C 323.586 335.756 323.372 335.294 323.686 334.094 C 323.982 332.962 323.334 331.334 322.092 330.092 C 320.942 328.942 320.277 328.000 320.615 328.000 C 321.495 328.000 318.195 322.988 315.183 319.750 C 312.432 316.792 311.469 316.432 310.500 318.000 "/></g>
<g fill="#118DB1FD" stroke="#118DB1FD">
<path d="M 307.156 358.217 C 307.006 359.473 306.776 362.654 306.645 365.287 C 306.515 367.920 306.026 369.720 305.560 369.287 C 305.094 368.854 304.996 369.985 305.341 371.800 C 305.787 374.142 305.639 374.895 304.829 374.394 C 304.015 373.891 303.876 374.667 304.343 377.095 C 304.752 379.223 304.664 379.981 304.107 379.117 C 303.453 378.100 303.025 378.610 302.490 381.044 C 301.913 383.674 302.147 384.627 303.632 385.681 C 304.677 386.424 305.383 386.544 305.233 385.954 C 305.087 385.374 306.594 386.527 308.582 388.516 C 312.063 391.996 312.270 392.066 314.134 390.379 C 315.199 389.415 315.846 388.041 315.571 387.325 C 315.297 386.609 315.393 386.131 315.786 386.262 C 316.179 386.393 316.623 386.173 316.773 385.773 C 316.923 385.373 318.201 383.890 319.613 382.478 C 321.098 380.993 321.936 379.276 321.601 378.404 C 321.283 377.574 321.416 377.139 321.895 377.435 C 323.032 378.138 325.392 372.443 324.537 371.060 C 324.177 370.477 324.389 370.000 325.008 370.000 C 325.702 370.000 325.876 369.183 325.460 367.875 C 325.023 366.497 325.157 365.979 325.842 366.403 C 327.003 367.120 328.415 361.402 327.831 358.350 C 327.519 356.720 326.285 356.466 317.453 356.217 C 307.667 355.941 307.422 355.989 307.156 358.217 "/></g>
<g fill="#118DB1FD" stroke="#118DB1FD">
<path d="M 223.014 359.750 C 223.032 364.768 224.003 368.116 225.221 367.364 C 225.839 366.981 225.945 367.599 225.500 369.000 C 224.981 370.635 225.118 371.045 226.000 370.500 C 226.872 369.961 227.024 370.349 226.540 371.875 C 226.124 373.183 226.298 374.000 226.992 374.000 C 227.611 374.000 227.840 374.450 227.500 375.000 C 227.160 375.550 227.385 376.000 228.000 376.000 C 228.615 376.000 228.869 376.403 228.565 376.895 C 228.260 377.388 228.676 378.046 229.489 378.357 C 230.301 378.669 230.733 379.531 230.449 380.273 C 230.164 381.015 231.513 383.694 233.446 386.225 C 236.885 390.730 239.348 391.672 240.942 389.094 C 241.372 388.398 242.016 387.877 242.372 387.935 C 243.812 388.169 248.999 384.866 248.985 383.724 C 248.975 382.934 248.610 383.032 247.956 384.000 C 247.152 385.190 246.981 384.983 247.127 383.000 C 247.456 378.534 247.021 375.869 246.059 376.463 C 245.502 376.808 245.332 375.505 245.642 373.272 C 245.992 370.753 245.852 369.943 245.221 370.835 C 244.596 371.718 244.402 370.367 244.648 366.835 C 244.929 362.785 244.777 361.982 244.016 363.500 C 243.229 365.070 243.068 364.480 243.264 360.750 L 243.514 356.000 233.257 356.000 L 223.000 356.000 223.014 359.750 "/></g>
<g fill="#118DB1FD" stroke="#118DB1FD">
<path d="M 250.831 328.750 C 250.216 330.263 249.613 334.200 249.491 337.500 C 249.370 340.800 249.117 342.825 248.930 342.000 C 248.742 341.175 248.569 343.325 248.545 346.777 L 248.500 353.054 261.000 352.777 L 273.500 352.500 273.500 341.500 L 273.500 330.500 268.750 330.563 C 266.138 330.597 264.000 330.230 264.000 329.745 C 264.000 329.261 263.044 329.169 261.875 329.540 C 260.309 330.037 259.955 329.881 260.531 328.950 C 261.100 328.029 260.726 327.838 259.155 328.249 C 257.772 328.611 257.234 328.431 257.655 327.749 C 258.076 327.067 257.538 326.888 256.155 327.249 C 254.968 327.560 254.249 327.405 254.558 326.907 C 254.866 326.408 254.405 326.000 253.534 326.000 C 252.663 326.000 251.447 327.238 250.831 328.750 "/></g>
<g fill="#118DB1FD" stroke="#118DB1FD">
<path d="M 294.000 327.000 C 293.175 327.533 292.725 328.030 293.000 328.103 C 293.275 328.177 293.098 328.162 292.606 328.071 C 290.666 327.709 286.014 329.214 286.524 330.038 C 286.824 330.524 284.808 330.646 281.998 330.313 L 276.932 329.713 277.216 341.107 L 277.500 352.500 290.000 352.500 L 302.500 352.500 302.670 346.571 C 302.784 342.594 302.532 341.112 301.906 342.071 C 301.293 343.007 301.177 341.949 301.567 339.000 C 302.034 335.468 301.912 334.823 301.000 336.000 C 300.062 337.210 299.954 336.969 300.438 334.750 C 300.768 333.238 300.622 332.000 300.113 332.000 C 299.604 332.000 299.423 331.100 299.710 330.000 C 300.014 328.838 299.741 328.000 299.058 328.000 C 298.411 328.000 298.160 327.550 298.500 327.000 C 299.289 325.723 295.976 325.723 294.000 327.000 "/></g>
<g fill="#118DB1FD" stroke="#118DB1FD">
<path d="M 277.000 367.058 L 277.000 378.176 281.250 377.591 C 283.921 377.224 284.771 377.317 283.536 377.841 C 281.929 378.525 282.323 378.796 285.707 379.337 C 287.981 379.701 290.664 379.731 291.671 379.405 C 293.227 378.900 293.276 378.986 292.000 379.984 C 290.772 380.944 290.992 381.078 293.220 380.723 C 294.716 380.484 295.731 380.627 295.475 381.040 C 294.920 381.938 298.045 383.288 298.840 382.493 C 299.145 382.188 299.348 380.307 299.292 378.313 C 299.217 375.665 299.455 375.067 300.175 376.094 C 300.877 377.094 300.983 376.682 300.541 374.666 C 300.096 372.635 300.253 372.038 301.094 372.558 C 301.930 373.075 302.136 372.378 301.808 370.142 C 301.554 368.414 301.742 367.000 302.225 367.000 C 302.709 367.000 302.969 364.638 302.802 361.750 L 302.500 356.500 289.750 356.220 L 277.000 355.940 277.000 367.058 "/></g>
<g fill="#118DB1FD" stroke="#118DB1FD">
<path d="M 248.285 362.755 C 248.133 367.510 248.341 368.910 248.991 367.500 C 249.631 366.109 249.727 366.840 249.304 369.903 C 248.866 373.071 249.015 374.108 249.836 373.601 C 250.574 373.145 250.766 373.446 250.381 374.450 C 249.588 376.515 250.815 381.232 251.960 380.525 C 252.456 380.218 253.144 380.425 253.490 380.984 C 253.835 381.543 254.568 382.000 255.118 382.000 C 255.668 382.000 255.866 381.592 255.558 381.093 C 255.249 380.595 255.968 380.440 257.155 380.751 C 258.774 381.174 259.108 380.983 258.492 379.988 C 257.888 379.010 258.132 378.837 259.415 379.329 C 260.374 379.697 263.019 379.701 265.293 379.337 C 268.677 378.796 269.071 378.525 267.464 377.841 C 266.229 377.317 267.079 377.224 269.750 377.591 L 274.000 378.176 274.000 367.088 L 274.000 356.000 261.250 356.005 L 248.500 356.011 248.285 362.755 "/></g>
<g fill="#118DB1FD" stroke="#118DB1FD">
<path d="M 277.667 302.667 C 277.300 303.033 277.000 308.658 277.000 315.167 L 277.000 327.000 280.750 326.930 C 283.796 326.873 284.124 326.693 282.500 325.974 C 281.118 325.362 281.760 325.260 284.578 325.644 C 287.299 326.015 289.130 325.751 290.078 324.850 C 290.860 324.108 292.063 323.455 292.750 323.400 C 293.438 323.345 294.706 323.233 295.570 323.150 C 296.595 323.052 297.028 322.220 296.820 320.750 C 296.644 319.513 296.051 318.725 295.501 319.000 C 294.952 319.275 294.458 318.825 294.404 318.000 C 294.168 314.427 293.936 313.921 292.845 314.595 C 292.145 315.028 291.962 314.871 292.379 314.195 C 293.227 312.824 286.665 305.395 282.875 303.435 C 279.797 301.844 278.658 301.676 277.667 302.667 "/></g>
<g fill="#118DB1FD" stroke="#118DB1FD">
<path d="M 263.250 382.738 C 262.013 382.959 261.000 383.544 261.000 384.038 C 261.000 384.533 260.251 384.650 259.336 384.299 C 258.192 383.860 257.906 384.038 258.420 384.870 C 258.964 385.751 258.465 385.904 256.584 385.432 C 254.497 384.908 254.003 385.141 254.015 386.642 C 254.032 388.641 255.904 392.161 256.068 390.500 C 256.122 389.950 256.284 390.579 256.427 391.898 C 256.570 393.217 258.013 395.467 259.633 396.898 C 261.253 398.329 261.885 399.064 261.039 398.530 C 260.193 397.997 260.578 398.771 261.895 400.249 C 263.213 401.728 264.675 402.701 265.145 402.410 C 265.615 402.120 266.000 402.347 266.000 402.915 C 266.000 403.991 271.120 407.000 272.950 407.000 C 273.626 407.000 273.998 402.641 273.993 394.750 L 273.986 382.500 269.743 382.418 C 267.409 382.374 264.488 382.517 263.250 382.738 "/></g>
<g fill="#118DB1FD" stroke="#118DB1FD">
<path d="M 270.000 303.000 C 270.000 303.550 269.663 303.947 269.250 303.882 C 267.307 303.575 265.937 304.090 266.457 304.931 C 266.774 305.443 266.506 306.187 265.862 306.585 C 265.131 307.037 264.959 306.876 265.405 306.155 C 265.797 305.520 265.672 305.000 265.127 305.000 C 264.187 305.000 259.234 311.222 259.754 311.750 C 259.889 311.888 259.944 312.225 259.875 312.500 C 259.806 312.775 259.678 312.438 259.590 311.750 C 259.501 311.063 258.863 311.519 258.172 312.764 C 257.176 314.557 257.173 314.974 258.157 314.764 C 258.840 314.619 258.374 315.097 257.122 315.827 C 255.801 316.596 255.074 317.751 255.391 318.577 C 255.691 319.360 255.501 320.000 254.969 320.000 C 254.436 320.000 254.000 320.723 254.000 321.607 C 254.000 322.648 254.546 323.004 255.552 322.618 C 256.525 322.245 256.851 322.432 256.427 323.119 C 255.969 323.859 256.479 323.983 258.000 323.500 C 259.667 322.971 260.050 323.111 259.476 324.039 C 258.892 324.983 259.415 325.125 261.601 324.615 C 263.860 324.088 264.169 324.184 263.000 325.050 C 261.856 325.898 262.568 326.020 266.000 325.567 C 269.298 325.131 270.099 325.252 269.000 326.023 C 267.832 326.842 268.163 327.010 270.500 326.787 L 273.500 326.500 273.781 314.250 C 274.050 302.513 273.977 302.000 272.031 302.000 C 270.914 302.000 270.000 302.450 270.000 303.000 "/></g>
<g fill="#118DB1FD" stroke="#118DB1FD">
<path d="M 277.002 394.750 C 277.001 402.706 277.371 407.000 278.059 407.000 C 278.641 407.000 278.829 406.532 278.475 405.960 C 278.062 405.291 278.714 405.141 280.304 405.540 C 282.317 406.045 283.307 405.491 285.638 402.557 C 287.212 400.575 288.275 399.673 288.000 400.554 C 287.715 401.466 288.234 401.192 289.208 399.914 C 290.148 398.682 290.641 397.228 290.304 396.683 C 289.967 396.137 290.161 395.982 290.736 396.337 C 292.084 397.170 295.304 392.301 294.387 390.817 C 293.979 390.156 294.138 389.967 294.773 390.360 C 296.033 391.138 297.439 387.519 296.480 385.968 C 296.124 385.391 294.913 385.210 293.791 385.566 C 292.338 386.028 291.966 385.864 292.500 385.000 C 293.045 384.118 292.635 383.981 291.000 384.500 C 289.333 385.029 288.950 384.889 289.524 383.961 C 290.106 383.020 289.619 382.879 287.565 383.394 C 285.851 383.824 285.061 383.710 285.445 383.088 C 285.822 382.478 284.316 382.174 281.531 382.298 L 277.003 382.500 277.002 394.750 "/></g>
<g fill="#C9E9F1FD" stroke="#C9E9F1FD">
<path d="M 306.880 452.271 C 303.355 453.263 303.296 453.358 304.650 455.895 C 305.414 457.328 306.470 459.738 306.995 461.250 C 307.947 463.991 307.981 464.000 317.501 464.000 L 327.051 464.000 325.621 461.250 C 323.849 457.844 320.492 454.735 316.300 452.617 C 312.755 450.826 312.102 450.802 306.880 452.271 "/></g>
<g fill="#C9E9F1FD" stroke="#C9E9F1FD">
<path d="M 233.000 453.561 C 229.280 455.639 224.000 461.461 224.000 463.486 C 224.000 463.769 228.266 464.000 233.481 464.000 L 242.962 464.000 243.639 461.250 C 244.012 459.738 244.981 457.473 245.794 456.219 C 247.504 453.578 247.553 453.653 243.101 452.148 C 238.551 450.611 238.193 450.661 233.000 453.561 "/></g>
<g fill="#C9E9F1FD" stroke="#C9E9F1FD">
<path d="M 250.700 457.504 C 247.617 463.968 247.669 464.000 261.000 464.000 L 273.000 464.000 273.000 460.148 L 273.000 456.296 264.250 455.721 C 259.438 455.405 254.802 454.875 253.950 454.543 C 252.862 454.120 251.892 455.004 250.700 457.504 "/></g>
<g fill="#C9E9F1FD" stroke="#C9E9F1FD">
<path d="M 293.500 455.117 C 291.300 455.539 286.913 455.911 283.750 455.942 L 278.000 456.000 278.000 460.000 L 278.000 464.000 290.000 464.000 C 297.582 464.000 302.000 463.620 302.000 462.968 C 302.000 461.347 299.297 455.293 298.352 454.796 C 297.883 454.550 295.700 454.694 293.500 455.117 "/></g>
<g fill="#C9E9F1FD" stroke="#C9E9F1FD">
<path d="M 278.000 470.531 C 278.000 474.670 278.326 474.836 287.500 475.373 C 291.350 475.598 295.226 476.081 296.113 476.446 C 297.319 476.942 298.240 476.022 299.760 472.805 C 300.878 470.437 301.588 468.163 301.337 467.750 C 301.087 467.338 295.734 467.000 289.441 467.000 L 278.000 467.000 278.000 470.531 "/></g>
<g fill="#C9E9F1FD" stroke="#C9E9F1FD">
<path d="M 249.000 468.517 C 249.000 469.387 249.655 471.365 250.455 472.913 L 251.910 475.726 261.705 475.236 C 267.092 474.966 271.605 474.661 271.733 474.557 C 271.860 474.453 272.172 472.755 272.424 470.783 L 272.883 467.198 260.942 467.067 C 250.663 466.954 249.000 467.156 249.000 468.517 "/></g>
<g fill="#C9E9F1FD" stroke="#C9E9F1FD">
<path d="M 308.882 467.750 C 308.816 468.163 308.816 468.838 308.882 469.250 C 308.947 469.663 308.516 470.000 307.923 470.000 C 307.318 470.000 306.969 471.422 307.127 473.250 C 307.401 476.436 307.072 477.000 304.941 477.000 C 304.359 477.000 304.173 477.472 304.530 478.048 C 304.886 478.624 305.925 478.988 306.839 478.856 C 307.752 478.724 309.525 478.962 310.778 479.385 C 312.428 479.941 313.530 479.636 314.778 478.279 C 315.725 477.249 316.099 477.000 315.609 477.726 C 314.953 478.696 315.152 478.879 316.359 478.416 C 317.261 478.069 318.000 476.886 318.000 475.786 C 318.000 474.336 318.455 473.961 319.655 474.421 C 321.694 475.203 326.000 471.405 326.000 468.826 C 326.000 467.201 325.063 467.000 317.500 467.000 C 312.825 467.000 308.947 467.338 308.882 467.750 "/></g>
<g fill="#C9E9F1FD" stroke="#C9E9F1FD">
<path d="M 224.000 467.346 C 224.000 469.351 227.667 474.129 229.573 474.608 C 230.908 474.943 232.000 475.590 232.000 476.046 C 232.000 476.501 233.518 476.628 235.373 476.327 C 237.348 476.006 239.030 476.240 239.432 476.890 C 240.286 478.272 244.665 478.352 245.500 477.000 C 245.840 476.450 245.641 476.000 245.059 476.000 C 244.477 476.000 243.986 474.763 243.968 473.250 C 243.907 467.962 242.163 467.000 232.640 467.000 C 227.888 467.000 224.000 467.156 224.000 467.346 "/></g>
<g fill="#118DB1FD" stroke="#118DB1FD">
<path d="M 248.470 389.244 C 248.096 390.204 247.434 390.769 246.999 390.500 C 246.564 390.231 245.153 390.865 243.863 391.910 C 241.539 393.792 241.535 393.828 243.446 395.940 C 244.506 397.112 245.921 397.861 246.589 397.604 C 247.258 397.348 248.111 397.444 248.486 397.819 C 248.860 398.194 248.567 398.519 247.833 398.542 C 247.100 398.565 247.976 399.371 249.779 400.333 C 251.583 401.295 253.565 401.769 254.184 401.386 C 254.833 400.985 255.033 401.138 254.656 401.748 C 254.287 402.344 255.310 403.261 257.000 403.850 L 259.997 404.895 258.488 401.977 C 257.658 400.372 255.971 398.499 254.740 397.815 C 253.223 396.973 252.984 396.532 254.000 396.449 C 255.204 396.351 255.167 396.180 253.813 395.581 C 252.885 395.170 252.343 394.271 252.607 393.582 C 252.871 392.893 252.201 391.243 251.118 389.915 C 249.351 387.748 249.079 387.679 248.470 389.244 "/></g>
<g fill="#118DB1FD" stroke="#118DB1FD">
<path d="M 253.333 306.437 C 250.567 307.719 247.936 309.607 247.488 310.634 C 247.040 311.660 246.634 311.929 246.586 311.231 C 246.522 310.286 245.925 310.364 244.250 311.537 C 241.951 313.148 241.201 315.900 243.000 316.125 C 245.885 316.486 247.408 317.198 245.750 317.410 C 244.303 317.596 248.286 320.000 250.041 320.000 C 250.690 320.000 250.948 319.307 250.618 318.448 C 250.229 317.434 250.425 317.144 251.181 317.612 C 251.962 318.095 252.125 317.769 251.681 316.612 C 251.290 315.593 251.424 315.144 252.011 315.507 C 252.555 315.843 253.000 315.641 253.000 315.059 C 253.000 312.860 253.180 312.479 254.592 311.689 C 255.390 311.242 255.781 310.455 255.462 309.939 C 255.143 309.422 255.385 309.000 256.000 309.000 C 256.615 309.000 256.797 308.480 256.405 307.845 C 255.990 307.175 256.128 306.961 256.732 307.334 C 257.305 307.688 258.296 307.348 258.935 306.578 C 260.988 304.104 258.503 304.042 253.333 306.437 "/></g>
<g fill="#118DB1FD" stroke="#118DB1FD">
<path d="M 292.387 305.319 C 292.677 307.116 294.785 310.533 295.430 310.250 C 295.743 310.113 295.763 310.000 295.474 310.000 C 295.185 310.000 295.647 311.350 296.500 313.000 C 297.353 314.650 298.476 316.000 298.994 316.000 C 299.513 316.000 299.680 316.671 299.365 317.492 C 298.687 319.259 301.330 320.541 303.202 319.354 C 304.210 318.715 304.221 318.499 303.250 318.390 C 301.658 318.212 302.004 317.940 304.397 317.490 C 305.441 317.294 307.016 316.407 307.897 315.519 C 309.369 314.037 309.295 313.749 307.000 312.009 C 305.436 310.824 304.487 310.561 304.465 311.307 C 304.445 311.963 303.848 311.453 303.138 310.172 C 302.352 308.756 301.269 308.067 300.371 308.411 C 299.542 308.729 299.164 308.544 299.507 307.989 C 299.843 307.445 299.529 306.931 298.809 306.848 C 296.726 306.605 295.457 306.246 296.000 306.052 C 296.275 305.954 295.532 305.483 294.349 305.005 C 292.853 304.402 292.255 304.497 292.387 305.319 "/></g>
<g fill="#C9E9F1FD" stroke="#C9E9F1FD">
<path d="M 267.332 444.959 C 265.590 445.374 261.990 446.992 259.332 448.555 C 254.692 451.282 254.600 451.424 257.000 452.098 C 258.375 452.484 262.538 452.845 266.250 452.900 L 273.000 453.000 273.000 448.500 C 273.000 443.714 272.879 443.638 267.332 444.959 "/></g>
<g fill="#118DB1FD" stroke="#118DB1FD">
<path d="M 299.848 389.250 C 299.610 391.203 299.244 392.550 299.100 392.000 C 299.028 391.725 298.543 392.175 298.021 393.000 C 297.371 394.029 297.454 394.511 298.286 394.535 C 298.954 394.555 298.453 395.152 297.172 395.862 C 295.837 396.603 295.073 397.747 295.379 398.545 C 295.672 399.310 295.413 400.245 294.802 400.622 C 294.064 401.079 293.975 400.838 294.537 399.905 C 295.235 398.747 295.071 398.754 293.604 399.945 C 291.906 401.324 291.913 401.424 293.756 402.105 C 296.375 403.074 303.505 399.772 305.134 396.835 C 305.846 395.551 306.445 395.085 306.465 395.800 C 306.493 396.840 306.750 396.850 307.750 395.850 C 309.614 393.986 309.363 393.506 305.021 390.633 C 300.493 387.636 300.059 387.520 299.848 389.250 "/></g>
<g fill="#C9E9F1FD" stroke="#C9E9F1FD">
<path d="M 278.549 444.784 C 278.247 445.086 278.000 447.058 278.000 449.167 L 278.000 453.000 284.250 452.900 C 287.688 452.845 291.625 452.483 293.000 452.095 C 295.477 451.395 295.463 451.364 291.500 448.743 C 287.560 446.138 279.622 443.711 278.549 444.784 "/></g>
</svg>
